<?xml version="1.0" encoding="UTF-8"?>
<svg version="1.1" xmlns="http://www.w3.org/2000/svg" width="1024" height="1024">
<path d="M0 0 C337.92 0 675.84 0 1024 0 C1024 337.92 1024 675.84 1024 1024 C686.08 1024 348.16 1024 0 1024 C0 686.08 0 348.16 0 0 Z " fill="#FEFEFE" transform="translate(0,0)"/>
<path d="M0 0 C153.45 0 306.9 0 465 0 C465 39.93 465 79.86 465 121 C412.53 121 360.06 121 306 121 C306.4350098 163.90164397 306.4350098 163.90164397 306.9909668 206.80175781 C307.04064941 215.12646484 307.04064941 215.12646484 307.04988098 219.03192139 C307.06671215 221.74369235 307.10102522 224.44969701 307.16133118 227.16033936 C307.69900699 252.41834647 307.69900699 252.41834647 302.17087269 259.11649704 C299.95071294 261.32223238 297.52909403 263.16338675 295 265 C293.72145339 266.38160408 292.47188983 267.79195745 291.28125 269.25 C287.19229641 273.96203223 282.89517458 278.4714858 278.60546875 283 C274.29107818 287.57343265 270.10574788 292.23854897 266 297 C265.51160645 297.5662207 265.02321289 298.13244141 264.52001953 298.71582031 C263.11474267 300.34986317 261.71295713 301.98682512 260.3125 303.625 C259.27089101 304.84249726 258.22922259 306.05994368 257.1875 307.27734375 C256.6615625 307.89206543 256.135625 308.50678711 255.59375 309.14013672 C254.02376312 310.97226908 252.45002569 312.80110477 250.875 314.62890625 C246.29054957 319.95367561 241.73599061 325.28975378 237.3125 330.75 C233.76427126 335.12295218 230.04942929 339.30236443 226.25390625 343.4609375 C223.89440487 346.11895465 221.66275885 348.85392294 219.4375 351.625 C207.52946565 366.19961982 192.65351235 377.3326038 176 386 C175.36835938 386.33290039 174.73671875 386.66580078 174.0859375 387.00878906 C162.68276066 393 162.68276066 393 159 393 C159 303.24 159 213.48 159 121 C106.53 121 54.06 121 0 121 C0 81.07 0 41.14 0 0 Z " fill="#0070FD" transform="translate(279,269)"/>
<path d="M0 0 C2.14778226 0.01005531 4.2955691 0.01917663 6.44335938 0.02734375 C11.64985499 0.04914252 16.85612543 0.08353019 22.0625 0.125 C22.13242992 13.09596973 22.18552754 26.0668936 22.21793652 39.03801441 C22.23350183 45.06292762 22.25457055 51.08771056 22.28881836 57.11254883 C22.32174092 62.94163455 22.33942142 68.77059606 22.34713173 74.59976768 C22.35261683 76.80857991 22.3633251 79.01738638 22.37969017 81.22614479 C22.50430332 98.76420206 21.08527337 115.4188351 16.3125 132.375 C15.93061523 133.7503894 15.93061523 133.7503894 15.54101562 135.15356445 C13.19191636 143.27231885 9.9887768 150.66056112 6.0625 158.125 C5.61519531 159.03636719 5.16789062 159.94773437 4.70703125 160.88671875 C-2.40872829 174.84696254 -12.44599659 187.54936175 -22.9375 199.125 C-23.77410156 200.05699219 -24.61070312 200.98898437 -25.47265625 201.94921875 C-40.18412878 217.50388276 -61.00317759 230.45379734 -80.9375 238.125 C-81.83710449 238.47788086 -81.83710449 238.47788086 -82.75488281 238.83789062 C-107.24882931 248.27241902 -132.02297142 248.70374481 -157.88153839 248.53057575 C-162.32969095 248.50517793 -166.77786033 248.50319045 -171.22607422 248.49847412 C-179.60833703 248.48615502 -187.99038542 248.45348719 -196.37255478 248.41307616 C-205.93275384 248.36800894 -215.4929644 248.34628452 -225.05324364 248.32629442 C-244.68147451 248.2847415 -264.30941233 248.21153186 -283.9375 248.125 C-283.9375 228.655 -283.9375 209.185 -283.9375 189.125 C-271.5625 183.68 -271.5625 183.68 -258.9375 178.125 C-248.17476235 172.74363117 -238.33621532 167.59376209 -228.9375 160.125 C-228.17566406 159.55265625 -227.41382813 158.9803125 -226.62890625 158.390625 C-221.63285219 154.61544377 -216.97053446 150.54212208 -212.3515625 146.31640625 C-210.18649577 144.35103014 -207.98040401 142.45274587 -205.75 140.5625 C-201.74271141 137.05711833 -198.35851158 133.19482412 -194.9375 129.125 C-192.9833045 126.82978948 -191.02293764 124.53987926 -189.0625 122.25 C-188.54292725 121.64172363 -188.02335449 121.03344727 -187.48803711 120.40673828 C-184.45908663 116.86893927 -181.38617755 113.38125363 -178.25 109.9375 C-174.49234695 105.79668733 -170.95984062 101.50856407 -167.44140625 97.1640625 C-163.476593 92.35185547 -159.36861925 87.66605763 -155.2734375 82.96484375 C-152.58228837 79.87416609 -149.91565858 76.76361189 -147.2578125 73.64428711 C-142.33009387 67.86203696 -137.31745528 62.18331389 -132.1796875 56.5859375 C-130.16721893 54.37713053 -128.20091984 52.13806702 -126.25 49.875 C-94.08331683 13.07032995 -47.36783119 -0.38883219 0 0 Z " fill="#04AFFE" transform="translate(721.9375,507.875)"/>
<path d="M0 0 C0.66 0.33 1.32 0.66 2 1 C0.1693727 1.94277306 -1.66466193 2.87893076 -3.5 3.8125 C-4.5209375 4.33457031 -5.541875 4.85664062 -6.59375 5.39453125 C-10.30272618 7.14268401 -14.16076008 8.56028503 -18 10 C-18.33 28.48 -18.66 46.96 -19 66 C36.11 66 91.22 66 148 66 C148 66.33 148 66.66 148 67 C140.13196075 68.2843693 132.2598598 68.13335555 124.3125 68.11352539 C122.72513328 68.113243 121.13776643 68.11340227 119.55039978 68.1139679 C115.25967649 68.11425383 110.96898138 68.10839003 106.67826462 68.10139394 C102.1872853 68.09512649 97.69630528 68.09455392 93.20532227 68.09336853 C84.70929193 68.0902652 76.21327452 68.08206529 67.71724987 68.07201904 C58.0413131 68.06082688 48.36537569 68.05533964 38.68943405 68.05032361 C18.79294723 68.03988182 -1.10352189 68.02154877 -21 68 C-21 48.53 -21 29.06 -21 9 C-14.07 6.03 -7.14 3.06 0 0 Z " fill="#1DA1E0" transform="translate(459,688)"/>
<path d="M0 0 C0 3 0 3 -1 6 C-2.40604659 7.1382282 -3.81407025 8.27414522 -5.234375 9.39453125 C-8.64528342 12.49604311 -11.27494951 16.29941369 -14 20 C-14.66 19.67 -15.32 19.34 -16 19 C-15.26394531 18.13117187 -14.52789063 17.26234375 -13.76953125 16.3671875 C-12.78384194 15.20313536 -11.79816554 14.03907227 -10.8125 12.875 C-10.32974609 12.30523438 -9.84699219 11.73546875 -9.34960938 11.1484375 C-6.21565305 7.44658305 -3.100626 3.72982068 0 0 Z " fill="#1CA1DE" transform="translate(558,601)"/>
</svg>
